<svg width="26.54" height="46" viewBox="0 0 26.54 46" xmlns="http://www.w3.org/2000/svg"><g id="svgGroup" stroke-linecap="round" fill-rule="evenodd" font-size="9pt" stroke="#fe7f43" stroke-width="0.25mm" fill="#fe7f43" style="stroke:#fe7f43;stroke-width:0.25mm;fill:#fe7f43"><path d="M 27.36 18.54 L 5.52 18.54 A 14.453 14.453 0 0 0 6.204 21.555 Q 6.918 23.593 8.245 25.035 A 8.988 8.988 0 0 0 8.58 25.38 A 8.486 8.486 0 0 0 13.155 27.667 A 12.013 12.013 0 0 0 15.24 27.84 Q 17.94 27.84 20.1 27.27 Q 22.26 26.7 24.24 25.8 L 25.5 30.42 A 24.462 24.462 0 0 1 22.899 31.396 A 31.118 31.118 0 0 1 20.64 32.01 A 23.349 23.349 0 0 1 17.585 32.502 A 31.215 31.215 0 0 1 14.58 32.64 A 16.991 16.991 0 0 1 9.933 32.037 A 12.665 12.665 0 0 1 3.93 28.35 A 14.113 14.113 0 0 1 0.807 22.626 Q 0.202 20.527 0.051 18.03 A 28.275 28.275 0 0 1 0 16.32 A 21.215 21.215 0 0 1 0.5 11.627 A 17.304 17.304 0 0 1 1.77 7.95 A 14.785 14.785 0 0 1 4.78 3.701 A 13.732 13.732 0 0 1 6.72 2.13 A 12.629 12.629 0 0 1 12.876 0.047 A 15.723 15.723 0 0 1 14.1 0 Q 18.172 0 20.991 1.597 A 10.328 10.328 0 0 1 21.57 1.95 Q 24.54 3.9 26.04 7.2 A 16.911 16.911 0 0 1 27.496 13.119 A 20.061 20.061 0 0 1 27.54 14.46 A 45.122 45.122 0 0 1 27.366 18.478 A 41.591 41.591 0 0 1 27.36 18.54 Z M 5.46 14.16 L 22.56 14.16 A 14.613 14.613 0 0 0 22.318 11.409 Q 22.02 9.859 21.358 8.644 A 7.453 7.453 0 0 0 20.28 7.14 A 7.493 7.493 0 0 0 16.104 4.875 A 11.037 11.037 0 0 0 13.98 4.68 A 8.148 8.148 0 0 0 10.913 5.241 A 7.514 7.514 0 0 0 8.22 7.11 Q 6.323 9.133 5.672 12.673 A 19.213 19.213 0 0 0 5.46 14.16 Z" vector-effect="non-scaling-stroke"/></g></svg>