<svg width="281.99" height="55.92" viewBox="0 0 281.99 55.92" xmlns="http://www.w3.org/2000/svg"><g id="svgGroup" stroke-linecap="round" fill-rule="nonzero" font-size="9pt" stroke="#000000" stroke-width="0.25mm" fill="#000000" style="stroke:#000000;stroke-width:0.25mm;fill:#000000"><path d="M 5.7 42 L 0 42 L 0 0 L 5.7 0 L 5.7 42 Z" id="1" vector-effect="non-scaling-stroke"/><path d="M 21.3 42 L 15.9 42 L 15.9 10.8 L 21.12 10.8 L 21.12 16.02 Q 22.8 13.5 25.41 11.79 A 10.39 10.39 0 0 1 29.673 10.215 A 13.577 13.577 0 0 1 31.62 10.08 A 13.935 13.935 0 0 1 34.659 10.391 Q 37.716 11.074 39.51 13.26 Q 41.985 16.275 42.113 21.125 A 20.259 20.259 0 0 1 42.12 21.66 L 42.12 42 L 36.72 42 L 36.72 22.26 A 11.559 11.559 0 0 0 36.515 20.015 Q 36.252 18.687 35.651 17.638 A 6.579 6.579 0 0 0 35.13 16.86 A 5.148 5.148 0 0 0 31.364 14.848 A 7.237 7.237 0 0 0 30.72 14.82 A 7.873 7.873 0 0 0 26.61 15.998 A 10.412 10.412 0 0 0 25.5 16.77 Q 23.04 18.72 21.3 21.36 L 21.3 42 Z" id="2" vector-effect="non-scaling-stroke"/><path d="M 48.72 39.48 L 51 34.98 A 11.134 11.134 0 0 0 52.886 36.255 Q 53.812 36.758 54.913 37.164 A 18.252 18.252 0 0 0 54.93 37.17 A 14.444 14.444 0 0 0 59.497 38.032 A 16.479 16.479 0 0 0 60 38.04 A 16.268 16.268 0 0 0 61.85 37.942 Q 63.868 37.71 65.07 36.93 Q 66.78 35.82 66.78 34.08 A 4.274 4.274 0 0 0 66.592 32.792 A 3.727 3.727 0 0 0 66.15 31.86 A 3.831 3.831 0 0 0 65.593 31.204 Q 64.984 30.62 63.98 30.049 A 13.382 13.382 0 0 0 63.84 29.97 A 17.077 17.077 0 0 0 62.644 29.374 Q 61.374 28.797 59.581 28.167 A 62.159 62.159 0 0 0 58.98 27.96 A 27.97 27.97 0 0 1 56.341 26.914 Q 55.073 26.33 54.067 25.677 A 11.601 11.601 0 0 1 52.41 24.39 A 6.795 6.795 0 0 1 50.434 20.792 A 10.076 10.076 0 0 1 50.22 18.66 A 7.272 7.272 0 0 1 52.589 13.251 A 10.478 10.478 0 0 1 53.37 12.57 A 10.659 10.659 0 0 1 56.992 10.742 Q 59.223 10.08 62.1 10.08 A 24.476 24.476 0 0 1 64.767 10.218 Q 66.152 10.37 67.362 10.689 A 15.141 15.141 0 0 1 67.44 10.71 A 23.262 23.262 0 0 1 69.921 11.523 A 18.666 18.666 0 0 1 71.64 12.3 L 70.14 16.74 A 14.717 14.717 0 0 0 67.939 15.681 A 18.115 18.115 0 0 0 66.45 15.18 A 15.014 15.014 0 0 0 63.76 14.672 A 19.102 19.102 0 0 0 61.86 14.58 Q 58.74 14.58 57.12 15.84 Q 55.5 17.1 55.5 18.6 A 2.952 2.952 0 0 0 56.397 20.731 A 4.249 4.249 0 0 0 56.76 21.06 A 5.928 5.928 0 0 0 57.54 21.581 Q 58.904 22.362 61.559 23.24 A 50.675 50.675 0 0 0 61.68 23.28 A 40.652 40.652 0 0 1 64.717 24.419 Q 67.605 25.646 69.26 27.017 A 8.968 8.968 0 0 1 69.96 27.66 A 8.158 8.158 0 0 1 72.291 33.208 A 10.737 10.737 0 0 1 72.3 33.66 Q 72.3 37.86 68.91 40.29 Q 65.52 42.72 59.82 42.72 A 23.994 23.994 0 0 1 56.303 42.473 A 18.569 18.569 0 0 1 53.43 41.82 Q 50.58 40.92 48.72 39.48 Z" id="3" vector-effect="non-scaling-stroke"/><path d="M 80.7 31.26 L 80.7 16.62 L 75.3 16.62 L 75.3 11.94 L 80.82 11.94 L 81.96 2.1 L 86.1 2.1 L 86.1 11.94 L 94.74 11.94 L 94.74 16.62 L 86.1 16.62 L 86.1 31.68 A 12.935 12.935 0 0 0 86.201 33.358 Q 86.485 35.521 87.57 36.54 Q 89.04 37.92 91.08 37.92 Q 92.58 37.92 93.93 37.44 A 15.44 15.44 0 0 0 95.837 36.619 A 13.66 13.66 0 0 0 96.42 36.3 L 97.92 40.62 A 11.128 11.128 0 0 1 96.949 41.134 Q 96.468 41.361 95.901 41.585 A 26.019 26.019 0 0 1 94.68 42.03 Q 92.64 42.72 90.42 42.72 A 10.996 10.996 0 0 1 87.311 42.302 A 8.36 8.36 0 0 1 83.31 39.75 A 9.669 9.669 0 0 1 81.373 36.209 Q 80.7 34.063 80.7 31.26 Z" id="4" vector-effect="non-scaling-stroke"/><path d="M 124.68 13.32 L 124.68 10.8 L 129.6 10.8 L 129.6 34.44 Q 129.6 36.324 130.358 37.122 A 1.779 1.779 0 0 0 130.71 37.41 Q 131.82 38.1 133.14 38.1 L 132 42.3 A 10.633 10.633 0 0 1 129.441 42.017 Q 126.059 41.177 125.102 37.848 A 8.154 8.154 0 0 1 125.04 37.62 A 12.784 12.784 0 0 1 123.174 39.676 A 17.099 17.099 0 0 1 121.29 41.13 A 8.957 8.957 0 0 1 118.318 42.392 Q 117.107 42.676 115.697 42.714 A 16.322 16.322 0 0 1 115.26 42.72 Q 111.36 42.72 108.18 40.74 A 13.768 13.768 0 0 1 103.732 36.224 A 16.753 16.753 0 0 1 103.11 35.13 A 16.337 16.337 0 0 1 101.532 30.365 A 21.986 21.986 0 0 1 101.22 26.58 A 19.885 19.885 0 0 1 101.818 21.619 A 16.781 16.781 0 0 1 103.11 18.18 Q 105 14.46 108.33 12.27 A 13.378 13.378 0 0 1 115.047 10.106 A 16.433 16.433 0 0 1 115.98 10.08 A 13.551 13.551 0 0 1 118.856 10.374 A 11.222 11.222 0 0 1 120.87 11.01 Q 123.06 11.94 124.68 13.32 Z M 124.2 34.02 L 124.2 17.28 Q 122.58 16.14 120.63 15.45 Q 118.68 14.76 116.52 14.76 Q 113.64 14.76 111.45 16.23 A 9.78 9.78 0 0 0 108.438 19.484 A 11.977 11.977 0 0 0 108 20.31 A 12.398 12.398 0 0 0 106.948 23.716 A 16.607 16.607 0 0 0 106.74 26.4 Q 106.74 29.76 108 32.37 A 10.561 10.561 0 0 0 109.863 35.098 A 9.418 9.418 0 0 0 111.48 36.45 Q 113.7 37.92 116.46 37.92 Q 118.74 37.92 120.78 36.81 A 11.67 11.67 0 0 0 123.612 34.679 A 10.843 10.843 0 0 0 124.2 34.02 Z" id="5" vector-effect="non-scaling-stroke"/><path d="M 141.78 53.28 L 143.76 48.6 Q 145.2 49.74 147.12 50.49 Q 148.775 51.137 151.055 51.226 A 19.073 19.073 0 0 0 151.8 51.24 A 13.021 13.021 0 0 0 154.513 50.974 Q 156.253 50.603 157.573 49.716 A 7.545 7.545 0 0 0 158.49 48.99 A 6.811 6.811 0 0 0 160.234 46.294 Q 160.641 45.189 160.807 43.819 A 16.704 16.704 0 0 0 160.92 41.82 L 160.92 37.98 Q 159.72 39.42 157.47 40.71 A 9.544 9.544 0 0 1 154.361 41.811 A 12.954 12.954 0 0 1 152.1 42 Q 148.56 42 145.38 40.17 A 13.342 13.342 0 0 1 141.005 36.067 A 16.462 16.462 0 0 1 140.22 34.8 A 15.109 15.109 0 0 1 138.592 30.226 A 21.02 21.02 0 0 1 138.24 26.28 Q 138.24 21.6 140.19 17.94 A 15.424 15.424 0 0 1 143.828 13.367 A 14.669 14.669 0 0 1 145.44 12.18 Q 148.74 10.08 152.7 10.08 A 13.419 13.419 0 0 1 155.592 10.381 A 11.229 11.229 0 0 1 157.5 10.98 A 15.423 15.423 0 0 1 159.797 12.161 A 12.599 12.599 0 0 1 161.22 13.2 L 161.22 10.8 L 166.14 10.8 L 166.14 41.28 A 24.416 24.416 0 0 1 165.927 44.601 Q 165.686 46.354 165.172 47.816 A 12.099 12.099 0 0 1 164.34 49.68 Q 162.54 52.92 159.33 54.42 A 15.486 15.486 0 0 1 155.368 55.633 A 21.146 21.146 0 0 1 151.8 55.92 Q 149.04 55.92 146.43 55.26 A 16.339 16.339 0 0 1 143.25 54.11 A 14.111 14.111 0 0 1 141.78 53.28 Z M 160.74 33.6 L 160.74 17.28 Q 159.441 16.335 157.618 15.564 A 21.571 21.571 0 0 0 157.56 15.54 A 9.749 9.749 0 0 0 155.278 14.909 A 13.281 13.281 0 0 0 153.24 14.76 Q 150.78 14.76 148.62 16.08 A 9.441 9.441 0 0 0 145.739 18.857 A 11.77 11.77 0 0 0 145.11 19.89 Q 143.839 22.234 143.765 25.562 A 18.688 18.688 0 0 0 143.76 25.98 Q 143.76 29.4 145.11 31.92 Q 146.46 34.44 148.62 35.82 Q 150.78 37.2 153.3 37.2 A 9.166 9.166 0 0 0 156.047 36.799 A 8.163 8.163 0 0 0 157.62 36.12 A 12.513 12.513 0 0 0 159.409 34.911 A 9.786 9.786 0 0 0 160.74 33.6 Z" id="6" vector-effect="non-scaling-stroke"/><path d="M 180.84 42 L 175.44 42 L 175.44 10.8 L 180.66 10.8 L 180.66 17.58 Q 181.44 15.6 182.76 13.89 Q 184.08 12.18 186.06 11.13 A 8.89 8.89 0 0 1 188.868 10.216 A 11.676 11.676 0 0 1 190.68 10.08 Q 191.58 10.08 192.48 10.17 A 11.383 11.383 0 0 1 193.113 10.25 Q 193.605 10.328 193.98 10.44 L 192.36 16.02 A 5.858 5.858 0 0 0 191.073 15.653 Q 190.416 15.54 189.66 15.54 A 7.775 7.775 0 0 0 185.682 16.647 A 9.365 9.365 0 0 0 185.43 16.8 Q 183.433 18.052 182.147 20.665 A 13.756 13.756 0 0 0 182.13 20.7 A 11.592 11.592 0 0 0 181.248 23.286 Q 180.971 24.536 180.882 25.997 A 23.454 23.454 0 0 0 180.84 27.42 L 180.84 42 Z" id="7" vector-effect="non-scaling-stroke"/><path d="M 220.74 13.32 L 220.74 10.8 L 225.66 10.8 L 225.66 34.44 Q 225.66 36.324 226.418 37.122 A 1.779 1.779 0 0 0 226.77 37.41 Q 227.88 38.1 229.2 38.1 L 228.06 42.3 A 10.633 10.633 0 0 1 225.501 42.017 Q 222.119 41.177 221.162 37.848 A 8.154 8.154 0 0 1 221.1 37.62 A 12.784 12.784 0 0 1 219.234 39.676 A 17.099 17.099 0 0 1 217.35 41.13 A 8.957 8.957 0 0 1 214.378 42.392 Q 213.167 42.676 211.757 42.714 A 16.322 16.322 0 0 1 211.32 42.72 Q 207.42 42.72 204.24 40.74 A 13.768 13.768 0 0 1 199.792 36.224 A 16.753 16.753 0 0 1 199.17 35.13 A 16.337 16.337 0 0 1 197.592 30.365 A 21.986 21.986 0 0 1 197.28 26.58 A 19.885 19.885 0 0 1 197.878 21.619 A 16.781 16.781 0 0 1 199.17 18.18 Q 201.06 14.46 204.39 12.27 A 13.378 13.378 0 0 1 211.107 10.106 A 16.433 16.433 0 0 1 212.04 10.08 A 13.551 13.551 0 0 1 214.916 10.374 A 11.222 11.222 0 0 1 216.93 11.01 Q 219.12 11.94 220.74 13.32 Z M 220.26 34.02 L 220.26 17.28 Q 218.64 16.14 216.69 15.45 Q 214.74 14.76 212.58 14.76 Q 209.7 14.76 207.51 16.23 A 9.78 9.78 0 0 0 204.498 19.484 A 11.977 11.977 0 0 0 204.06 20.31 A 12.398 12.398 0 0 0 203.008 23.716 A 16.607 16.607 0 0 0 202.8 26.4 Q 202.8 29.76 204.06 32.37 A 10.561 10.561 0 0 0 205.923 35.098 A 9.418 9.418 0 0 0 207.54 36.45 Q 209.76 37.92 212.52 37.92 Q 214.8 37.92 216.84 36.81 A 11.67 11.67 0 0 0 219.672 34.679 A 10.843 10.843 0 0 0 220.26 34.02 Z" id="8" vector-effect="non-scaling-stroke"/><path d="M 241.8 42 L 236.4 42 L 236.4 10.8 L 241.62 10.8 L 241.62 16.02 Q 243.3 13.5 245.88 11.79 A 10.323 10.323 0 0 1 251.401 10.085 A 12.515 12.515 0 0 1 251.76 10.08 A 12.596 12.596 0 0 1 254.41 10.344 Q 256.202 10.729 257.571 11.678 A 7.876 7.876 0 0 1 257.85 11.88 A 9.45 9.45 0 0 1 261.119 16.494 A 11.49 11.49 0 0 1 261.18 16.68 Q 263.04 13.92 265.59 12 A 9.401 9.401 0 0 1 269.664 10.27 A 12.868 12.868 0 0 1 271.92 10.08 A 12.862 12.862 0 0 1 274.853 10.393 Q 277.798 11.083 279.51 13.29 Q 281.869 16.331 281.993 21.121 A 20.759 20.759 0 0 1 282 21.66 L 282 42 L 276.6 42 L 276.6 22.08 Q 276.6 19.353 275.537 17.497 A 6.589 6.589 0 0 0 275.1 16.83 A 4.784 4.784 0 0 0 271.612 14.852 A 6.407 6.407 0 0 0 270.96 14.82 Q 268.26 14.82 265.95 16.83 Q 263.64 18.84 261.9 21.54 L 261.9 42 L 256.5 42 L 256.5 22.08 Q 256.5 19.353 255.437 17.497 A 6.589 6.589 0 0 0 255 16.83 A 4.784 4.784 0 0 0 251.512 14.852 A 6.407 6.407 0 0 0 250.86 14.82 Q 248.22 14.82 245.88 16.77 Q 243.54 18.72 241.8 21.36 L 241.8 42 Z" id="9" vector-effect="non-scaling-stroke"/></g></svg>