<svg width="22.63" height="54" viewBox="0 0 22.63 54" xmlns="http://www.w3.org/2000/svg"><g id="svgGroup" stroke-linecap="round" fill-rule="evenodd" font-size="9pt" stroke="#d53a92" stroke-width="0.25mm" fill="#d53a92" style="stroke:#d53a92;stroke-width:0.25mm;fill:#d53a92"><path d="M 5.4 29.16 L 5.4 14.52 L 0 14.52 L 0 9.84 L 5.52 9.84 L 6.66 0 L 10.8 0 L 10.8 9.84 L 19.44 9.84 L 19.44 14.52 L 10.8 14.52 L 10.8 29.58 A 12.935 12.935 0 0 0 10.901 31.258 Q 11.185 33.421 12.27 34.44 Q 13.74 35.82 15.78 35.82 Q 17.28 35.82 18.63 35.34 A 15.44 15.44 0 0 0 20.537 34.519 A 13.66 13.66 0 0 0 21.12 34.2 L 22.62 38.52 A 11.128 11.128 0 0 1 21.649 39.034 Q 21.168 39.261 20.601 39.485 A 26.019 26.019 0 0 1 19.38 39.93 Q 17.34 40.62 15.12 40.62 A 10.996 10.996 0 0 1 12.011 40.202 A 8.36 8.36 0 0 1 8.01 37.65 A 9.669 9.669 0 0 1 6.073 34.109 Q 5.4 31.963 5.4 29.16 Z" vector-effect="non-scaling-stroke"/></g></svg>